<svg id="Layer_1" data-name="Layer 1" xmlns="http://www.w3.org/2000/svg" viewBox="0 0 645.4 89.89"><defs><style>.cls-1{fill:#fff;}</style></defs><title>logo</title><path class="cls-1" d="M37.51,100C25.6,100,15.65,94.35,10,81.46l4.3-3.07c4.18,11.3,11.79,16.82,23.46,16.82,13.88,0,22-8,22-19.16,0-7.86-5.77-14.49-25.3-21.61-16.95-6.14-23.09-13-23.09-23.09,0-14.37,11.91-21.25,26.28-21.25,11.67,0,20.88,4.54,27.14,14.49l-4.05,3.07c-5.4-8.35-12.89-12.89-23.46-12.89C26.33,14.77,17,19.69,17,30.86c0,9.21,5.16,13.26,20.63,19.4C60.11,59,65.26,66,65.26,76.3,65.26,91.28,53.1,100,37.51,100Z" transform="translate(-10 -10.11)"/><path class="cls-1" d="M96.08,99.63c-7.12,0-12.89-5.9-12.89-15.47v-43H73.24V36.63h9.95V11.83h5.4V36.63h14.25v4.54H88.59V85.39c0,6.14,3.93,9.58,8.23,9.58a9.2,9.2,0,0,0,6.26-2.7v5.53A15.3,15.3,0,0,1,96.08,99.63Z" transform="translate(-10 -10.11)"/><path class="cls-1" d="M144.34,41.67a12.14,12.14,0,0,0-6.26-1.35c-8.47,0-17.93,5.9-17.93,20.51V98.16h-5.4V36.63h5.4v9c3.93-7.12,11.05-10.19,18.54-10.19a21.09,21.09,0,0,1,7.61,1.23Z" transform="translate(-10 -10.11)"/><path class="cls-1" d="M194.56,98.16v-9c-3.93,7.12-11.05,10.19-18.54,10.19-14.12,0-20.51-11.05-20.51-25.42V36.63h5.4V75.32c0,12.4,5.77,19.4,15.72,19.4,8.47,0,17.93-5.77,17.93-20.39V36.63H200V98.16Z" transform="translate(-10 -10.11)"/><path class="cls-1" d="M251.78,98.16,231.15,63.65,217.64,79.12v19h-5.4V11.83h5.4V71.88l30.95-35.25h6.63l-20.51,23L258,98.16Z" transform="translate(-10 -10.11)"/><path class="cls-1" d="M285.18,99.63c-7.12,0-12.89-5.9-12.89-15.47v-43h-9.95V36.63h9.95V11.83h5.4V36.63h14.25v4.54H277.69V85.39c0,6.14,3.93,9.58,8.23,9.58a9.2,9.2,0,0,0,6.26-2.7v5.53A15.3,15.3,0,0,1,285.18,99.63Z" transform="translate(-10 -10.11)"/><path class="cls-1" d="M341.67,98.16v-9c-3.93,7.12-11.05,10.19-18.54,10.19C309,99.39,302.61,88.33,302.61,74V36.63H308V75.32c0,12.4,5.77,19.4,15.72,19.4,8.47,0,17.93-5.77,17.93-20.39V36.63h5.4V98.16Z" transform="translate(-10 -10.11)"/><path class="cls-1" d="M388.94,41.67a12.14,12.14,0,0,0-6.26-1.35c-8.47,0-17.93,5.9-17.93,20.51V98.16h-5.4V36.63h5.4v9c3.93-7.12,11.05-10.19,18.54-10.19a21.09,21.09,0,0,1,7.61,1.23Z" transform="translate(-10 -10.11)"/><path class="cls-1" d="M442.11,98.16V11.95h5.16V93.49h45.32v4.67Z" transform="translate(-10 -10.11)"/><path class="cls-1" d="M546.85,98.16c-4.79,0-6.63-2.09-6.63-6.63V89.19c-4.91,6.51-14,10.32-22.47,10.32-9.95,0-19-5.28-19-17.68,0-14.37,12.4-21.12,25.79-21.12a43,43,0,0,1,15.72,2.95v-8c0-10.07-8-15.84-16.7-15.84A20.18,20.18,0,0,0,506.33,49.9l-4.05-2.95C506.08,39.58,515.54,35,524.5,35c10.81,0,21,6.26,21,21.37V91.53c0,1.23.86,2.09,2.45,2.09h1.84v4.54ZM540.22,69.3c-3.56-2.46-9.21-4.05-15.1-4.05-11.42,0-20.75,6.14-20.75,16.09,0,9.09,6.26,13.39,14,13.39,7.49,0,16.46-4.18,21.86-12Z" transform="translate(-10 -10.11)"/><path class="cls-1" d="M584.06,99.51c-8.72,0-15.23-3.81-19.16-11.05v9.7h-5.28V11.83h5.28V47.68C569.44,39.46,576,35,584.55,35,597.93,35,607,49.53,607,67.33S597.57,99.51,584.06,99.51Zm-.49-59.93c-9.09,0-16.21,8.6-18.67,20V78.26c3.07,9.7,9.58,16.82,18.3,16.82,10.81,0,18.18-12.4,18.18-27.75S594.25,39.58,583.57,39.58Z" transform="translate(-10 -10.11)"/><path class="cls-1" d="M635.51,99.51c-8.6,0-15.35-3.07-20.51-11.79l4.05-2.95c4.3,7,9.46,10.07,16.58,10.07,9.58,0,14.12-5,14.12-11.79,0-6.39-3.56-10.44-18.3-15.35C620.28,64,615.61,57.39,615.61,50.51c0-8.47,6.76-15.23,19-15.23,7.61,0,14.25,3.07,19.65,10.07l-4.05,3.07c-4.17-6-9.95-8.6-15.72-8.6-7.86,0-13.14,3.56-13.14,10.68,0,6.39,4.18,9.58,13.88,13,15.23,5.53,20.14,10.81,20.14,19.16C655.4,92.39,648.28,99.51,635.51,99.51Z" transform="translate(-10 -10.11)"/></svg>